<svg width="199" height="200" viewBox="0 0 199 200" fill="none" xmlns="http://www.w3.org/2000/svg">
<rect width="199" height="200" fill="#2D333E"/>
<path d="M32.625 52.875H38.7188L51.4922 89.9297H45.3984L32.625 52.875ZM61.4531 52.875H67.5469L80.3203 89.9297H74.2266L61.4531 52.875ZM109.5 92.0859H88.125V87H109.5V92.0859ZM124.711 89.9297H118.641L131.414 52.875H137.484L124.711 89.9297ZM153.539 89.9297H147.469L160.242 52.875H166.312L153.539 89.9297ZM51.8438 155.086H30.4688V150H51.8438V155.086ZM67.0547 152.93H60.9844L73.7578 115.875H79.8281L67.0547 152.93ZM96.0703 116.531L95.3906 126.375H91.2422V116.648V114H96.0703V116.531ZM105.703 116.531L105.047 126.375H100.898V116.578V114H105.703V116.531ZM123.375 146.227C123.375 145.023 123.773 144.008 124.57 143.18C125.367 142.336 126.477 141.914 127.898 141.914C129.305 141.914 130.406 142.328 131.203 143.156C132.016 143.984 132.422 145.008 132.422 146.227C132.422 147.445 132.008 148.461 131.18 149.273C130.367 150.07 129.273 150.469 127.898 150.469C126.508 150.469 125.406 150.062 124.594 149.25C123.781 148.438 123.375 147.43 123.375 146.227Z" fill="#EFC1CB"/>
</svg>
