<svg width="200" height="236" viewBox="0 0 200 236" fill="none" xmlns="http://www.w3.org/2000/svg">
<g clip-path="url(#clip0_11_57)">
<path d="M100.093 234.098L100.369 118.681L100.093 234.098Z" fill="#E4E4E4"/>
<path d="M100.093 234.098L100.369 118.681" stroke="#E4E4E4"/>
<path d="M35.6016 110.408L35.0189 119.595L49.768 130.727L75.8339 134.293L74.2325 139.363L74.371 147.409L75.6177 158.212L78.0752 163.947L63.0252 187.143L77.1477 217.718L77.1866 217.746C84.8174 223.229 92.448 228.713 100.079 234.196L100.366 234.401V118.854H100.004V233.696C92.4814 228.291 84.9591 222.886 77.4366 217.481L63.437 187.172L78.4835 163.981L75.9709 158.118L74.7326 147.385L74.5949 139.416L76.3079 133.993L49.9106 130.381L49.0411 129.725L49.1916 129.721L49.0524 123.435L35.6016 110.408ZM35.9131 111.214L48.6936 123.591L48.8271 129.563L35.3918 119.423L35.9131 111.214Z" fill="#E4E4E4" stroke="#E4E4E4"/>
<path d="M35.8264 110.777L59.0548 110.915L75.3113 123.996L48.7349 123.651" stroke="#E4E4E4"/>
<path d="M75.5183 124.065L76.0015 134.143L91.9473 146.154L84.6302 164.102L88.2197 179.91L92.9828 187.917L100.162 188.815" stroke="#E4E4E4"/>
<path d="M77.3131 217.531L100.093 197.927" stroke="#E4E4E4"/>
<path d="M100.162 233.96L90.8429 206.072" stroke="#E4E4E4"/>
<path d="M77.3821 217.6L81.9381 169.417" stroke="#E4E4E4"/>
<path d="M78.2795 164.033L88.2888 179.841" stroke="#E4E4E4"/>
<path d="M63.2311 187.089L67.9941 169.279L75.7944 158.373L89.9455 151.193L100.162 160.72" stroke="#E4E4E4"/>
<path d="M100.093 181.29L88.2888 179.841L92.6377 170.867L100.162 168.865" stroke="#E4E4E4"/>
<path d="M92.7757 170.798L84.6302 164.102" stroke="#E4E4E4"/>
<path d="M89.9455 151.263L86.3905 145.671L88.5304 143.669" stroke="#E4E4E4"/>
<path d="M86.3214 145.637L84.8718 145.568L86.3214 145.637Z" fill="#E4E4E4"/>
<path d="M86.3214 145.637L84.8718 145.568" stroke="#E4E4E4"/>
<path d="M84.8718 145.533L82.0761 142.979H77.7963L80.592 146.292L84.009 146.258L84.8718 145.533Z" fill="#E4E4E4" stroke="#E4E4E4"/>
<path d="M91.9819 146.154L75.4493 124.134L87.0463 115.643L91.9819 146.154Z" stroke="#E4E4E4"/>
<path d="M87.0463 115.678L92.4306 118.75L88.4614 124.099" stroke="#E4E4E4"/>
<path d="M90.1871 134.834L100.162 130.14" stroke="#E4E4E4"/>
<path d="M92.3615 118.75L100.093 118.784L92.3615 118.75Z" fill="#E4E4E4"/>
<path d="M92.3615 118.75L100.093 118.784" stroke="#E4E4E4"/>
<path d="M75.4859 124.028L70.8 112.606L56.2543 104.796L39.9513 101.38L13.398 73.8501L3.34294 64.0879L1.19524 54.9114L1 44.4658L4.0263 38.9013L3.63581 48.9564L6.75972 61.5497L16.0339 68.188L14.6671 54.8137L7.93119 35.4845L6.36923 26.8937L12.3242 10.3955L28.6271 2L17.1077 10.9813L12.6171 27.1866L17.9863 39.2918L22.5746 39.5846L32.532 33.1416L42.0014 33.3368L34.094 35.875L23.3555 46.223L26.3818 74.8263L40.8299 90.6412L39.7561 82.6361L40.2442 73.7525L43.0753 63.4045L54.79 56.7662L45.6134 66.4308L45.1253 80.6837L52.0565 95.6199L71.6786 103.723L72.7525 89.2745L75.8764 82.148L85.7363 72.4834L77.4384 86.8339L76.6574 99.0367L81.2456 110.751L86.9077 115.34L75.4859 124.028Z" fill="#E4E4E4" stroke="#E4E4E4"/>
<path d="M100.239 234.098L99.9632 118.681L100.239 234.098Z" fill="#E4E4E4"/>
<path d="M100.239 234.098L99.9632 118.681" stroke="#E4E4E4"/>
<path d="M164.731 110.408L165.313 119.595L150.564 130.727L124.498 134.293L126.1 139.363L125.961 147.409L124.714 158.212L122.257 163.947L137.307 187.143L123.184 217.718L123.146 217.746C115.515 223.229 107.884 228.713 100.253 234.196L99.9667 234.401V118.854H100.328V233.696C107.851 228.291 115.373 222.886 122.896 217.481L136.895 187.172L121.849 163.981L124.361 158.118L125.6 147.385L125.737 139.416L124.024 133.993L150.422 130.381L151.291 129.725L151.141 129.721L151.28 123.435L164.731 110.408ZM164.419 111.214L151.639 123.591L151.505 129.563L164.94 119.423L164.419 111.214Z" fill="#E4E4E4" stroke="#E4E4E4"/>
<path d="M164.506 110.777L141.277 110.915L125.021 123.996L151.597 123.651" stroke="#E4E4E4"/>
<path d="M124.814 124.065L124.331 134.143L108.385 146.154L115.702 164.102L112.112 179.91L107.349 187.917L100.17 188.815" stroke="#E4E4E4"/>
<path d="M123.019 217.531L100.239 197.927" stroke="#E4E4E4"/>
<path d="M100.17 233.96L109.489 206.072" stroke="#E4E4E4"/>
<path d="M122.95 217.6L118.394 169.417" stroke="#E4E4E4"/>
<path d="M122.053 164.033L112.043 179.841" stroke="#E4E4E4"/>
<path d="M137.101 187.089L132.338 169.279L124.538 158.373L110.387 151.193L100.17 160.72" stroke="#E4E4E4"/>
<path d="M100.239 181.29L112.043 179.841L107.695 170.867L100.17 168.865" stroke="#E4E4E4"/>
<path d="M107.556 170.798L115.702 164.102" stroke="#E4E4E4"/>
<path d="M110.387 151.263L113.942 145.671L111.802 143.669" stroke="#E4E4E4"/>
<path d="M114.011 145.637L115.46 145.568L114.011 145.637Z" fill="#E4E4E4"/>
<path d="M114.011 145.637L115.46 145.568" stroke="#E4E4E4"/>
<path d="M115.46 145.533L118.256 142.979H122.536L119.74 146.292L116.323 146.258L115.46 145.533Z" fill="#E4E4E4" stroke="#E4E4E4"/>
<path d="M108.35 146.154L124.883 124.134L113.286 115.643L108.35 146.154Z" stroke="#E4E4E4"/>
<path d="M113.286 115.678L107.902 118.75L111.871 124.099" stroke="#E4E4E4"/>
<path d="M110.145 134.834L100.17 130.14" stroke="#E4E4E4"/>
<path d="M107.971 118.75L100.239 118.784L107.971 118.75Z" fill="#E4E4E4"/>
<path d="M107.971 118.75L100.239 118.784" stroke="#E4E4E4"/>
<path d="M124.846 124.028L129.532 112.606L144.078 104.796L160.381 101.38L186.934 73.8501L196.989 64.0879L199.137 54.9114L199.332 44.4658L196.306 38.9013L196.696 48.9564L193.572 61.5497L184.298 68.188L185.665 54.8137L192.401 35.4845L193.963 26.8937L188.008 10.3955L171.705 2L183.224 10.9813L187.715 27.1866L182.346 39.2918L177.758 39.5846L167.8 33.1416L158.331 33.3368L166.238 35.875L176.977 46.223L173.95 74.8263L159.502 90.6412L160.576 82.6361L160.088 73.7525L157.257 63.4045L145.542 56.7662L154.719 66.4308L155.207 80.6837L148.276 95.6199L128.654 103.723L127.58 89.2745L124.456 82.148L114.596 72.4834L122.894 86.8339L123.675 99.0367L119.087 110.751L113.424 115.34L124.846 124.028Z" fill="#E4E4E4" stroke="#E4E4E4"/>
</g>
<defs>
<clipPath id="clip0_11_57">
<rect width="200" height="235.805" fill="white"/>
</clipPath>
</defs>
</svg>
